<mxfile host="app.diagrams.net" modified="2023-06-02T10:25:24.859Z" agent="Mozilla/5.0 (Windows NT 10.0; Win64; x64) AppleWebKit/537.36 (KHTML, like Gecko) Chrome/113.0.0.0 Safari/537.36 Edg/113.0.1774.57" etag="Y-hQ1XDeLjY7WGcurQxg" version="21.3.6" type="device">
  <diagram id="kgpKYQtTHZ0yAKxKKP6v" name="Page-1">
    <mxGraphModel dx="1607" dy="905" grid="1" gridSize="10" guides="1" tooltips="1" connect="1" arrows="1" fold="1" page="1" pageScale="1" pageWidth="850" pageHeight="1100" math="0" shadow="0">
      <root>
        <mxCell id="0" />
        <mxCell id="1" parent="0" />
        <mxCell id="3nuBFxr9cyL0pnOWT2aG-5" value=":Bus Simulation" style="shape=umlLifeline;perimeter=lifelinePerimeter;container=1;collapsible=0;recursiveResize=0;rounded=0;shadow=0;strokeWidth=1;" parent="1" vertex="1">
          <mxGeometry x="587" y="80" width="130" height="800" as="geometry" />
        </mxCell>
        <mxCell id="3nuBFxr9cyL0pnOWT2aG-6" value="" style="points=[];perimeter=orthogonalPerimeter;rounded=0;shadow=0;strokeWidth=1;" parent="3nuBFxr9cyL0pnOWT2aG-5" vertex="1">
          <mxGeometry x="60" y="80" width="10" height="710" as="geometry" />
        </mxCell>
        <mxCell id="3nuBFxr9cyL0pnOWT2aG-4" value="" style="points=[];perimeter=orthogonalPerimeter;rounded=0;shadow=0;strokeWidth=1;" parent="3nuBFxr9cyL0pnOWT2aG-5" vertex="1">
          <mxGeometry x="66" y="190" width="10" height="40" as="geometry" />
        </mxCell>
        <mxCell id="_HQoY5Zo2aadwidPgHyK-5" value="" style="points=[];perimeter=orthogonalPerimeter;rounded=0;shadow=0;strokeWidth=1;" parent="3nuBFxr9cyL0pnOWT2aG-5" vertex="1">
          <mxGeometry x="66" y="270" width="10" height="40" as="geometry" />
        </mxCell>
        <mxCell id="_HQoY5Zo2aadwidPgHyK-6" value="Compute transmission&#xa;time (ID = 15)" style="verticalAlign=bottom;endArrow=block;shadow=0;strokeWidth=1;align=center;spacing=5;spacingTop=0;" parent="3nuBFxr9cyL0pnOWT2aG-5" edge="1">
          <mxGeometry x="0.5" y="-63" relative="1" as="geometry">
            <mxPoint x="80" y="270" as="sourcePoint" />
            <mxPoint x="80" y="310" as="targetPoint" />
            <Array as="points">
              <mxPoint x="100" y="270" />
              <mxPoint x="100" y="310" />
            </Array>
            <mxPoint x="63" y="63" as="offset" />
          </mxGeometry>
        </mxCell>
        <mxCell id="3nuBFxr9cyL0pnOWT2aG-1" value=":FMU 1" style="shape=umlLifeline;perimeter=lifelinePerimeter;container=1;collapsible=0;recursiveResize=0;rounded=0;shadow=0;strokeWidth=1;" parent="1" vertex="1">
          <mxGeometry x="424" y="80" width="100" height="800" as="geometry" />
        </mxCell>
        <mxCell id="3nuBFxr9cyL0pnOWT2aG-2" value="" style="points=[];perimeter=orthogonalPerimeter;rounded=0;shadow=0;strokeWidth=1;" parent="3nuBFxr9cyL0pnOWT2aG-1" vertex="1">
          <mxGeometry x="45" y="80" width="10" height="710" as="geometry" />
        </mxCell>
        <mxCell id="eGcspzg-jYoVY6njO30K-1" value=":FMU 2" style="shape=umlLifeline;perimeter=lifelinePerimeter;container=1;collapsible=0;recursiveResize=0;rounded=0;shadow=0;strokeWidth=1;" parent="1" vertex="1">
          <mxGeometry x="825" y="80" width="100" height="800" as="geometry" />
        </mxCell>
        <mxCell id="eGcspzg-jYoVY6njO30K-2" value="" style="points=[];perimeter=orthogonalPerimeter;rounded=0;shadow=0;strokeWidth=1;" parent="eGcspzg-jYoVY6njO30K-1" vertex="1">
          <mxGeometry x="45" y="80" width="10" height="710" as="geometry" />
        </mxCell>
        <mxCell id="eGcspzg-jYoVY6njO30K-4" value="Arbitration (ID = 15, ID = 16)" style="verticalAlign=bottom;endArrow=block;shadow=0;strokeWidth=1;spacingLeft=9;" parent="1" edge="1">
          <mxGeometry x="0.25" y="73" relative="1" as="geometry">
            <mxPoint x="667" y="270" as="sourcePoint" />
            <mxPoint x="667" y="310" as="targetPoint" />
            <Array as="points">
              <mxPoint x="687" y="270" />
              <mxPoint x="687" y="310" />
            </Array>
            <mxPoint as="offset" />
          </mxGeometry>
        </mxCell>
        <mxCell id="Ct78ly6aTw_c9TOjw8sM-1" value="Transmit (ID = 15)" style="verticalAlign=bottom;endArrow=block;entryX=0;entryY=0;shadow=0;strokeWidth=1;" parent="1" edge="1">
          <mxGeometry relative="1" as="geometry">
            <mxPoint x="480" y="179" as="sourcePoint" />
            <mxPoint x="648" y="179" as="targetPoint" />
          </mxGeometry>
        </mxCell>
        <mxCell id="_HQoY5Zo2aadwidPgHyK-4" value="Transmit (ID = 16)" style="verticalAlign=bottom;endArrow=block;shadow=0;strokeWidth=1;exitX=0.02;exitY=0.088;exitDx=0;exitDy=0;exitPerimeter=0;" parent="1" edge="1">
          <mxGeometry relative="1" as="geometry">
            <mxPoint x="870.2" y="227.55999999999995" as="sourcePoint" />
            <mxPoint x="657" y="228" as="targetPoint" />
          </mxGeometry>
        </mxCell>
        <mxCell id="_HQoY5Zo2aadwidPgHyK-7" value=":FMU 3" style="shape=umlLifeline;perimeter=lifelinePerimeter;container=1;collapsible=0;recursiveResize=0;rounded=0;shadow=0;strokeWidth=1;" parent="1" vertex="1">
          <mxGeometry x="959" y="80" width="100" height="800" as="geometry" />
        </mxCell>
        <mxCell id="_HQoY5Zo2aadwidPgHyK-8" value="" style="points=[];perimeter=orthogonalPerimeter;rounded=0;shadow=0;strokeWidth=1;" parent="_HQoY5Zo2aadwidPgHyK-7" vertex="1">
          <mxGeometry x="45" y="80" width="10" height="710" as="geometry" />
        </mxCell>
        <mxCell id="_HQoY5Zo2aadwidPgHyK-10" value="Transmit (ID = 15)" style="verticalAlign=bottom;endArrow=block;shadow=0;strokeWidth=1;entryX=-0.132;entryY=0.541;entryDx=0;entryDy=0;entryPerimeter=0;" parent="1" edge="1">
          <mxGeometry x="-0.402" relative="1" as="geometry">
            <mxPoint x="656.5" y="524" as="sourcePoint" />
            <mxPoint x="1002.6799999999998" y="523.8299999999999" as="targetPoint" />
            <mxPoint as="offset" />
          </mxGeometry>
        </mxCell>
        <mxCell id="_HQoY5Zo2aadwidPgHyK-14" value="" style="strokeWidth=2;html=1;shape=mxgraph.flowchart.annotation_2;align=left;labelPosition=right;pointerEvents=1;fontSize=11;fillColor=none;" parent="1" vertex="1">
          <mxGeometry x="315" y="150" width="17" height="260" as="geometry" />
        </mxCell>
        <mxCell id="_HQoY5Zo2aadwidPgHyK-15" value="" style="strokeWidth=2;html=1;shape=mxgraph.flowchart.annotation_2;align=left;labelPosition=right;pointerEvents=1;fontSize=11;fillColor=none;" parent="1" vertex="1">
          <mxGeometry x="315" y="450" width="17" height="220" as="geometry" />
        </mxCell>
        <mxCell id="_HQoY5Zo2aadwidPgHyK-18" value="Event Mode" style="text;align=left;fontStyle=0;verticalAlign=middle;spacingLeft=3;spacingRight=3;strokeColor=none;rotatable=0;points=[[0,0.5],[1,0.5]];portConstraint=eastwest;fontSize=11;fillColor=none;" parent="1" vertex="1">
          <mxGeometry x="247" y="546" width="80" height="26" as="geometry" />
        </mxCell>
        <mxCell id="_HQoY5Zo2aadwidPgHyK-19" value="Transmit (ID = 15)" style="verticalAlign=bottom;endArrow=block;entryX=0.42;entryY=0.587;shadow=0;strokeWidth=1;entryDx=0;entryDy=0;entryPerimeter=0;" parent="1" edge="1">
          <mxGeometry x="-0.019" relative="1" as="geometry">
            <mxPoint x="657" y="480" as="sourcePoint" />
            <mxPoint x="867" y="480.1199999999999" as="targetPoint" />
            <mxPoint as="offset" />
          </mxGeometry>
        </mxCell>
        <mxCell id="3nuBFxr9cyL0pnOWT2aG-7" value="Confirm(ID = 15)" style="verticalAlign=bottom;endArrow=block;endSize=8;exitX=0;exitY=0.95;shadow=0;strokeWidth=1;endFill=1;" parent="1" edge="1">
          <mxGeometry relative="1" as="geometry">
            <mxPoint x="480" y="567" as="targetPoint" />
            <mxPoint x="647" y="566.9999999999998" as="sourcePoint" />
          </mxGeometry>
        </mxCell>
        <mxCell id="TJ8cURRopO99HcsGI5Q8-2" value="" style="shape=curlyBracket;whiteSpace=wrap;html=1;rounded=1;labelPosition=left;verticalLabelPosition=middle;align=right;verticalAlign=middle;strokeWidth=2;" parent="1" vertex="1">
          <mxGeometry x="401" y="160" width="20" height="240" as="geometry" />
        </mxCell>
        <mxCell id="TJ8cURRopO99HcsGI5Q8-3" value="" style="shape=curlyBracket;whiteSpace=wrap;html=1;rounded=1;labelPosition=left;verticalLabelPosition=middle;align=right;verticalAlign=middle;strokeWidth=2;" parent="1" vertex="1">
          <mxGeometry x="401" y="460" width="20" height="80" as="geometry" />
        </mxCell>
        <mxCell id="TJ8cURRopO99HcsGI5Q8-4" value="Super-dense&#xa;time iteration&#xa;(1)" style="text;align=center;fontStyle=0;verticalAlign=middle;spacingLeft=3;spacingRight=3;strokeColor=none;rotatable=0;points=[[0,0.5],[1,0.5]];portConstraint=eastwest;fontSize=11;fillColor=none;" parent="1" vertex="1">
          <mxGeometry x="327" y="268" width="80" height="26" as="geometry" />
        </mxCell>
        <mxCell id="TJ8cURRopO99HcsGI5Q8-5" value="Super-dense&#xa;time iteration&#xa;(1)" style="text;align=center;fontStyle=0;verticalAlign=middle;spacingLeft=3;spacingRight=3;strokeColor=none;rotatable=0;points=[[0,0.5],[1,0.5]];portConstraint=eastwest;fontSize=11;fillColor=none;" parent="1" vertex="1">
          <mxGeometry x="327" y="487" width="80" height="26" as="geometry" />
        </mxCell>
        <mxCell id="TJ8cURRopO99HcsGI5Q8-6" value="Event Mode" style="text;align=left;fontStyle=0;verticalAlign=middle;spacingLeft=3;spacingRight=3;strokeColor=none;rotatable=0;points=[[0,0.5],[1,0.5]];portConstraint=eastwest;fontSize=11;fillColor=none;" parent="1" vertex="1">
          <mxGeometry x="247" y="267" width="80" height="26" as="geometry" />
        </mxCell>
        <mxCell id="TJ8cURRopO99HcsGI5Q8-7" value="" style="strokeWidth=2;html=1;shape=mxgraph.flowchart.annotation_2;align=left;labelPosition=right;pointerEvents=1;fontSize=11;fillColor=none;" parent="1" vertex="1">
          <mxGeometry x="315" y="420" width="17" height="20" as="geometry" />
        </mxCell>
        <mxCell id="TJ8cURRopO99HcsGI5Q8-8" value="Step Mode" style="text;align=left;fontStyle=0;verticalAlign=middle;spacingLeft=3;spacingRight=3;strokeColor=none;rotatable=0;points=[[0,0.5],[1,0.5]];portConstraint=eastwest;fontSize=11;fillColor=none;" parent="1" vertex="1">
          <mxGeometry x="247" y="417" width="80" height="26" as="geometry" />
        </mxCell>
        <mxCell id="WQ29GB5LsVI4mir2wNij-17" value="" style="shape=curlyBracket;whiteSpace=wrap;html=1;rounded=1;labelPosition=left;verticalLabelPosition=middle;align=right;verticalAlign=middle;strokeWidth=2;" parent="1" vertex="1">
          <mxGeometry x="401" y="546" width="20" height="114" as="geometry" />
        </mxCell>
        <mxCell id="WQ29GB5LsVI4mir2wNij-18" value="Super-dense&#xa;time iteration&#xa;(2)" style="text;align=center;fontStyle=0;verticalAlign=middle;spacingLeft=3;spacingRight=3;strokeColor=none;rotatable=0;points=[[0,0.5],[1,0.5]];portConstraint=eastwest;fontSize=11;fillColor=none;" parent="1" vertex="1">
          <mxGeometry x="328" y="590" width="80" height="26" as="geometry" />
        </mxCell>
        <mxCell id="T2kxRcn2vWfKBakwWOv0-1" value="" style="strokeWidth=2;html=1;shape=mxgraph.flowchart.annotation_2;align=left;labelPosition=right;pointerEvents=1;fontSize=11;fillColor=none;" parent="1" vertex="1">
          <mxGeometry x="315" y="678" width="17" height="20" as="geometry" />
        </mxCell>
        <mxCell id="T2kxRcn2vWfKBakwWOv0-2" value="Step Mode" style="text;align=left;fontStyle=0;verticalAlign=middle;spacingLeft=3;spacingRight=3;strokeColor=none;rotatable=0;points=[[0,0.5],[1,0.5]];portConstraint=eastwest;fontSize=11;fillColor=none;" parent="1" vertex="1">
          <mxGeometry x="247" y="675" width="80" height="26" as="geometry" />
        </mxCell>
        <mxCell id="T2kxRcn2vWfKBakwWOv0-3" value="" style="points=[];perimeter=orthogonalPerimeter;rounded=0;shadow=0;strokeWidth=1;" parent="1" vertex="1">
          <mxGeometry x="653" y="607" width="10" height="40" as="geometry" />
        </mxCell>
        <mxCell id="T2kxRcn2vWfKBakwWOv0-4" value="Compute transmission&#xa;time (ID = 16)" style="verticalAlign=bottom;endArrow=block;shadow=0;strokeWidth=1;align=center;spacing=-2;" parent="1" edge="1">
          <mxGeometry x="0.325" y="63" relative="1" as="geometry">
            <mxPoint x="667" y="607" as="sourcePoint" />
            <mxPoint x="667" y="647" as="targetPoint" />
            <Array as="points">
              <mxPoint x="687" y="607" />
              <mxPoint x="687" y="647" />
            </Array>
            <mxPoint as="offset" />
          </mxGeometry>
        </mxCell>
        <mxCell id="T2kxRcn2vWfKBakwWOv0-5" value="Transmit (ID = 16)" style="verticalAlign=bottom;endArrow=block;shadow=0;strokeWidth=1;entryX=-0.132;entryY=0.541;entryDx=0;entryDy=0;entryPerimeter=0;" parent="1" edge="1">
          <mxGeometry x="-0.402" relative="1" as="geometry">
            <mxPoint x="656.5" y="780" as="sourcePoint" />
            <mxPoint x="1002.6799999999996" y="779.83" as="targetPoint" />
            <mxPoint as="offset" />
          </mxGeometry>
        </mxCell>
        <mxCell id="T2kxRcn2vWfKBakwWOv0-6" value="" style="strokeWidth=2;html=1;shape=mxgraph.flowchart.annotation_2;align=left;labelPosition=right;pointerEvents=1;fontSize=11;fillColor=none;" parent="1" vertex="1">
          <mxGeometry x="315" y="706" width="17" height="144" as="geometry" />
        </mxCell>
        <mxCell id="T2kxRcn2vWfKBakwWOv0-7" value="Event Mode" style="text;align=left;fontStyle=0;verticalAlign=middle;spacingLeft=3;spacingRight=3;strokeColor=none;rotatable=0;points=[[0,0.5],[1,0.5]];portConstraint=eastwest;fontSize=11;fillColor=none;" parent="1" vertex="1">
          <mxGeometry x="248" y="765" width="80" height="26" as="geometry" />
        </mxCell>
        <mxCell id="T2kxRcn2vWfKBakwWOv0-8" value="Transmit (ID = 16)" style="verticalAlign=bottom;endArrow=block;shadow=0;strokeWidth=1;exitX=-0.333;exitY=0.812;exitDx=0;exitDy=0;exitPerimeter=0;" parent="1" source="3nuBFxr9cyL0pnOWT2aG-6" edge="1">
          <mxGeometry x="-0.019" relative="1" as="geometry">
            <mxPoint x="657" y="736" as="sourcePoint" />
            <mxPoint x="480" y="736" as="targetPoint" />
            <mxPoint as="offset" />
          </mxGeometry>
        </mxCell>
        <mxCell id="T2kxRcn2vWfKBakwWOv0-9" value="Confirm (ID = 16)" style="verticalAlign=bottom;endArrow=block;endSize=8;shadow=0;strokeWidth=1;endFill=1;" parent="1" edge="1">
          <mxGeometry relative="1" as="geometry">
            <mxPoint x="870" y="823" as="targetPoint" />
            <mxPoint x="660" y="823" as="sourcePoint" />
          </mxGeometry>
        </mxCell>
        <mxCell id="T2kxRcn2vWfKBakwWOv0-10" value="" style="shape=curlyBracket;whiteSpace=wrap;html=1;rounded=1;labelPosition=left;verticalLabelPosition=middle;align=right;verticalAlign=middle;strokeWidth=2;" parent="1" vertex="1">
          <mxGeometry x="401" y="716" width="20" height="80" as="geometry" />
        </mxCell>
        <mxCell id="T2kxRcn2vWfKBakwWOv0-11" value="Super-dense&#xa;time iteration&#xa;(1)" style="text;align=center;fontStyle=0;verticalAlign=middle;spacingLeft=3;spacingRight=3;strokeColor=none;rotatable=0;points=[[0,0.5],[1,0.5]];portConstraint=eastwest;fontSize=11;fillColor=none;" parent="1" vertex="1">
          <mxGeometry x="327" y="743" width="80" height="26" as="geometry" />
        </mxCell>
        <mxCell id="T2kxRcn2vWfKBakwWOv0-12" value="" style="shape=curlyBracket;whiteSpace=wrap;html=1;rounded=1;labelPosition=left;verticalLabelPosition=middle;align=right;verticalAlign=middle;strokeWidth=2;" parent="1" vertex="1">
          <mxGeometry x="401" y="802" width="20" height="38" as="geometry" />
        </mxCell>
        <mxCell id="T2kxRcn2vWfKBakwWOv0-13" value="Super-dense&#xa;time iteration&#xa;(2)" style="text;align=center;fontStyle=0;verticalAlign=middle;spacingLeft=3;spacingRight=3;strokeColor=none;rotatable=0;points=[[0,0.5],[1,0.5]];portConstraint=eastwest;fontSize=11;fillColor=none;" parent="1" vertex="1">
          <mxGeometry x="328" y="808" width="80" height="26" as="geometry" />
        </mxCell>
      </root>
    </mxGraphModel>
  </diagram>
</mxfile>
